<svg width="104" height="17" viewBox="0 0 104 17" fill="none" xmlns="http://www.w3.org/2000/svg">
<g clip-path="url(#clip0_296_301)">
<path d="M65.6587 10.293C65.6587 12.9826 64.4107 12.9826 63.7867 12.9826C63.1627 12.9826 61.9147 12.9826 61.9147 10.293V2.70679H58.7253V10.7757C58.7253 13.8792 60.8054 16.086 63.7867 16.086C66.768 16.086 68.8481 13.8792 68.8481 10.7757V2.70679H65.6587V10.293Z" fill="#B6B6B6" fill-opacity="0.5"/>
<path d="M96.9279 2.29297C93.0453 2.29297 89.856 5.39655 89.856 9.32759C89.856 13.1897 93.0453 16.362 96.9279 16.362C100.811 16.362 104 13.1897 104 9.32759C104 5.46552 100.811 2.29297 96.9279 2.29297ZM96.9279 13.1207C94.7786 13.1207 93.1146 11.3965 93.1146 9.25855C93.1146 7.18959 94.7785 5.46538 96.8585 5.39642C98.9385 5.39642 100.672 7.05169 100.741 9.12066V9.18952C100.741 11.3964 99.0079 13.1207 96.9279 13.1207Z" fill="#B6B6B6" fill-opacity="0.5"/>
<path d="M7.14137 0.5L0 15.9482H3.6053L4.99197 12.9827H9.2906L10.6773 15.9482H14.2827L7.14137 0.5ZM5.7547 10.3621L7.07197 7.12059L8.3894 10.3621H5.7547Z" fill="#B6B6B6" fill-opacity="0.5"/>
<path d="M22.5333 2.77588H17.3333V15.8103H20.5919V12.0862H22.3252C25.5146 12.0862 27.5252 10.2931 27.5252 7.39653V7.3275C27.5946 4.49992 25.6533 2.77588 22.5333 2.77588ZM24.2666 7.53443C24.2666 8.63788 23.504 9.3276 22.256 9.3276H20.5919V5.74126H22.256C23.5733 5.6723 24.2666 6.36202 24.2666 7.53443Z" fill="#B6B6B6" fill-opacity="0.5"/>
<path d="M35.9839 2.77588H30.7839V15.8103H34.0427V12.0862H35.7761C38.9654 12.0862 40.9761 10.2931 40.9761 7.39653V7.3275C41.0454 4.49992 39.1039 2.77588 35.9839 2.77588ZM37.7173 7.53443C37.7173 8.63788 36.9547 9.3276 35.7067 9.3276H34.0427V5.74126H35.7067C37.024 5.6723 37.7173 6.36202 37.7173 7.53443Z" fill="#B6B6B6" fill-opacity="0.5"/>
<path d="M50.6827 6.91393C48.1174 6.22427 47.5627 5.94828 47.5627 5.05172V4.98286C47.5627 4.2932 48.2559 3.81048 49.3653 3.81048C50.7519 3.87945 52.0693 4.3621 53.1786 5.25865L53.248 5.32769L55.0506 2.70696L54.9813 2.63793C53.3867 1.39655 51.3759 0.707031 49.3653 0.707031C46.2453 0.707031 44.0266 2.569 44.0266 5.25865V5.32769C44.0266 8.43114 46.176 9.25869 49.088 9.94834C51.584 10.569 52 10.9829 52 11.7415V11.8104C52 12.638 51.2374 13.1208 49.9894 13.1208C48.3947 13.0519 46.8 12.4311 45.6213 11.3277L45.5519 11.2586L43.4719 13.7414L43.5413 13.8105C45.2747 15.3967 47.5626 16.2243 49.92 16.2243C53.3866 16.2243 55.536 14.4311 55.536 11.5346V11.4656C55.536 8.70693 53.5947 7.60358 50.6827 6.91393Z" fill="#B6B6B6" fill-opacity="0.5"/>
<path d="M79.5947 16.4999L75.6427 9.87918L74.4639 16.0172H71.6213L74.5333 2.29297L79.6639 10.9137L84.5172 2.29297L87.4294 16.0172H84.3786L83.2694 9.94821L79.5947 16.4999Z" fill="#B6B6B6" fill-opacity="0.5"/>
</g>
<defs>
<clipPath id="clip0_296_301">
<rect width="104" height="16" fill="white" transform="translate(0 0.5)"/>
</clipPath>
</defs>
</svg>
