<svg width="201" height="28" viewBox="0 0 201 28" fill="none" xmlns="http://www.w3.org/2000/svg">
<path d="M53.515 27.1738H46.8369L46.7329 23.6598C45.9732 25.0028 44.8515 26.0623 43.3679 26.8366C41.8843 27.6108 40.2108 27.9999 38.3474 27.9999C35.6201 27.9999 33.4568 27.2516 31.8512 25.753C30.2457 24.2545 29.4439 22.2491 29.4439 19.7348C29.4439 17.1188 30.4096 15.0076 32.3431 13.4073C34.2745 11.805 36.8278 11.0048 40.0029 11.0048C42.4182 11.0048 44.5916 11.4019 46.525 12.1941C46.489 7.95775 44.2817 5.8386 39.8989 5.8386C36.9997 5.8386 34.2385 6.70063 31.6153 8.42269L31.0454 2.58405C32.2531 1.79186 33.7447 1.1633 35.5222 0.69836C37.2997 0.233423 39.0851 0.00195312 40.8806 0.00195312C44.9874 0.00195312 48.1186 1.02761 50.2759 3.07492C52.4333 5.12424 53.511 8.09544 53.511 11.9865V27.1738H53.515ZM44.8435 21.1276C45.8612 20.0261 46.421 18.4937 46.527 16.5301C45.0074 15.8417 43.3179 15.4965 41.4545 15.4965C39.8309 15.4965 38.5813 15.8158 37.7015 16.4523C36.8218 17.0909 36.3819 18.0108 36.3819 19.216C36.3819 20.3534 36.7518 21.2314 37.4956 21.85C38.2374 22.4706 39.2471 22.7798 40.5227 22.7798C42.3842 22.7818 43.8258 22.2311 44.8435 21.1276Z" fill="#C93733"/>
<path d="M57.8618 19.8366C59.1035 20.6627 60.5011 21.3093 62.0546 21.7742C63.6082 22.2391 65.1077 22.4706 66.5593 22.4706C69.5265 22.4706 71.01 21.6265 71.01 19.9404C71.01 19.1482 70.7001 18.5276 70.0783 18.0806C69.4565 17.6337 68.1629 17.1328 66.1954 16.5821C63.0203 15.722 60.767 14.6525 59.4394 13.3794C58.1097 12.1063 57.4459 10.3663 57.4459 8.16133C57.4459 5.61316 58.4037 3.61573 60.3191 2.16904C62.2346 0.722348 64.8658 0 68.2128 0C69.8704 0 71.5259 0.189566 73.1834 0.568699C74.8409 0.947832 76.2026 1.44669 77.2722 2.06727L76.3925 7.54275C73.8032 6.19982 71.198 5.52736 68.5747 5.52736C65.9875 5.52736 64.6919 6.31954 64.6919 7.90392C64.6919 8.66218 65.0198 9.26481 65.6756 9.71178C66.3314 10.1608 67.555 10.6257 69.3505 11.1066C72.6636 12.0704 75.0189 13.2078 76.4165 14.5168C77.8141 15.8258 78.5139 17.5997 78.5139 19.8386C78.5139 22.3529 77.4862 24.3423 75.4328 25.805C73.3794 27.2676 70.5582 27.9999 66.9692 27.9999C65.0717 27.9999 63.1983 27.7585 61.3528 27.2756C59.5073 26.7947 58.0318 26.1741 56.9261 25.4159L57.8618 19.8366Z" fill="#C93733"/>
<path d="M81.261 19.8366C82.5026 20.6627 83.9002 21.3093 85.4538 21.7742C87.0053 22.2391 88.5069 22.4706 89.9565 22.4706C92.9236 22.4706 94.4092 21.6265 94.4092 19.9404C94.4092 19.1482 94.0993 18.5276 93.4775 18.0806C92.8556 17.6337 91.562 17.1328 89.5946 16.5821C86.4195 15.722 84.1681 14.6525 82.8385 13.3794C81.5089 12.1063 80.8451 10.3663 80.8451 8.16133C80.8451 5.61316 81.8028 3.61573 83.7183 2.16904C85.6337 0.722348 88.265 0 91.612 0C93.2695 0 94.9251 0.189566 96.5806 0.568699C98.2361 0.947832 99.5997 1.44669 100.669 2.06727L99.7897 7.54275C97.2004 6.19982 94.5951 5.52736 91.9739 5.52736C89.3846 5.52736 88.091 6.31954 88.091 7.90392C88.091 8.66218 88.4189 9.26481 89.0747 9.71178C89.7305 10.1608 90.9562 10.6257 92.7497 11.1066C96.0627 12.0704 98.418 13.2078 99.8156 14.5168C101.213 15.8258 101.911 17.5997 101.911 19.8386C101.911 22.3529 100.883 24.3423 98.8299 25.805C96.7765 27.2676 93.9553 27.9999 90.3664 27.9999C88.4689 27.9999 86.5954 27.7585 84.75 27.2756C82.9025 26.7947 81.4289 26.1741 80.3232 25.4159L81.261 19.8366Z" fill="#C93733"/>
<path d="M105.978 6.84403C107.202 4.74284 108.911 3.0986 111.103 1.91132C113.294 0.722039 115.821 0.129395 118.686 0.129395C120.204 0.129395 121.747 0.310979 123.319 0.672153C124.889 1.03333 126.208 1.5242 127.278 2.14478L126.346 8.44837C124.103 7.38081 121.791 6.84603 119.41 6.84603C117.063 6.84603 115.199 7.48257 113.82 8.75766C112.438 10.0327 111.748 11.7708 111.748 13.9757C111.748 16.2146 112.448 17.9726 113.844 19.2457C115.241 20.5208 117.183 21.1573 119.668 21.1573C120.808 21.1573 121.953 21.0376 123.111 20.7961C124.267 20.5547 125.482 20.1596 126.76 19.6068L127.588 25.8067C126.414 26.4612 125.043 26.968 123.473 27.3312C121.903 27.6923 120.324 27.8739 118.736 27.8739C115.803 27.8739 113.24 27.3132 111.049 26.1938C108.857 25.0763 107.158 23.482 105.95 21.4147C104.742 19.3474 104.139 16.921 104.139 14.1314C104.141 11.3737 104.752 8.94523 105.978 6.84403Z" fill="#C93733"/>
<path d="M143.845 27.9999C141.118 27.9999 138.677 27.3873 136.521 26.1661C134.364 24.9449 132.664 23.2827 131.423 21.1815C130.181 19.0823 129.559 16.6878 129.559 14.0019C129.559 11.3141 130.189 8.92155 131.449 6.82035C132.708 4.71916 134.416 3.05696 136.573 1.83576C138.731 0.612556 141.154 0.00195312 143.847 0.00195312C146.608 0.00195312 149.058 0.614552 151.197 1.83576C153.336 3.05896 155.028 4.72116 156.27 6.82035C157.511 8.92155 158.133 11.3141 158.133 14.0019C158.133 16.6539 157.503 19.0384 156.244 21.1576C154.984 23.2767 153.284 24.9469 151.145 26.1681C149.004 27.3873 146.57 27.9999 143.845 27.9999ZM148.71 8.75393C147.468 7.39504 145.845 6.7126 143.843 6.7126C141.876 6.7126 140.272 7.39305 139.028 8.75393C137.785 10.1148 137.165 11.8628 137.165 13.9979C137.165 16.1331 137.787 17.8811 139.028 19.2419C140.27 20.6028 141.876 21.2833 143.843 21.2833C145.845 21.2833 147.466 20.6028 148.71 19.2419C149.953 17.8811 150.573 16.135 150.573 13.9979C150.575 11.8648 149.953 10.1168 148.71 8.75393Z" fill="#C93733"/>
<path d="M25.2491 27.7943H18.1592V12.3795C18.1592 9.56595 15.8658 7.27918 13.0466 7.27918C10.2274 7.27918 7.93609 9.56795 7.93609 12.3795V27.7943H0.84613V12.3795C0.84613 5.66488 6.32056 0.203369 13.0466 0.203369C19.7727 0.203369 25.2471 5.66687 25.2471 12.3795V27.7943H25.2491Z" fill="#C93733"/>
<path d="M185.111 27.7943H178.021V11.5634C178.021 9.20079 176.096 7.27918 173.728 7.27918C171.361 7.27918 169.436 9.20079 169.436 11.5634V27.7943H162.346V11.5634C162.346 5.29971 167.452 0.203369 173.728 0.203369C180.005 0.203369 185.111 5.29971 185.111 11.5634V27.7943Z" fill="#C93733"/>
<path d="M200.789 27.7943H193.699V11.5634C193.699 9.20079 191.773 7.27918 189.406 7.27918C187.039 7.27918 185.113 9.20079 185.113 11.5634V27.7943H178.023V11.5634C178.023 5.29971 183.13 0.203369 189.406 0.203369C195.682 0.203369 200.789 5.29971 200.789 11.5634V27.7943Z" fill="#C93733"/>
</svg>
