<svg width="229" height="50" viewBox="0 0 229 50" fill="none" xmlns="http://www.w3.org/2000/svg">
<path d="M111.786 1.00809C81.9895 17.4266 52.1929 -10.4317 0.162842 4.65666V47.7933C52.1929 32.705 81.9895 60.5633 111.786 44.1828V1.00809Z" fill="#4AA435"/>
<path d="M228.198 1.00806H111.786V44.0307H228.198V1.00806Z" fill="#005DA0"/>
<path d="M13.4268 32.5148H9.05615V15.7923H13.2368V17.8446C13.6549 17.0844 14.301 16.4764 15.2131 16.0203C16.1252 15.5642 17.0374 15.3362 17.9875 15.3362C20.3439 15.3362 21.9402 16.2483 22.7763 18.1106C23.9545 16.2483 25.6647 15.3362 27.9071 15.3362C29.5413 15.3362 30.9475 15.8683 32.0877 16.9324C33.2279 17.9966 33.798 19.5928 33.798 21.6832V32.5148H29.5413V22.5953C29.5413 21.6452 29.3133 20.885 28.8192 20.3149C28.3631 19.7449 27.641 19.4408 26.6529 19.4408C25.7407 19.4408 25.0186 19.7449 24.4865 20.391C23.9545 21.0371 23.6504 21.7972 23.6504 22.7473V32.5148H19.3177V22.5953C19.3177 21.6452 19.0897 20.885 18.5956 20.3149C18.1016 19.7449 17.3794 19.4408 16.4673 19.4408C15.5552 19.4408 14.795 19.7449 14.263 20.391C13.6929 20.9991 13.4268 21.7972 13.4268 22.7473" fill="white"/>
<path d="M39.3849 17.8067C40.9811 16.1345 43.0335 15.2983 45.4658 15.2983C47.8982 15.2983 49.9125 16.1345 51.5468 17.8067C53.143 19.479 53.9792 21.6073 53.9792 24.1537C53.9792 26.7001 53.181 28.8284 51.5468 30.5007C49.9125 32.173 47.8982 33.0091 45.4658 33.0091C43.0335 33.0091 41.0191 32.173 39.3849 30.5007C37.7886 28.8284 36.9525 26.7001 36.9525 24.1537C36.9905 21.6073 37.7886 19.479 39.3849 17.8067ZM42.5774 27.6503C43.3755 28.4864 44.3637 28.9044 45.5038 28.9044C46.644 28.9044 47.6322 28.4864 48.4303 27.6503C49.2284 26.8141 49.6465 25.6359 49.6465 24.1537C49.6465 22.6715 49.2284 21.4933 48.4303 20.6572C47.6322 19.821 46.644 19.403 45.5038 19.403C44.3637 19.403 43.3755 19.821 42.5774 20.6572C41.7793 21.4933 41.3612 22.6715 41.3612 24.1537C41.3612 25.6739 41.7413 26.8141 42.5774 27.6503Z" fill="white"/>
<path d="M61.8084 22.8994V32.5148H57.4377V15.7923H61.6944V17.8446C62.1505 17.0464 62.7966 16.4003 63.6707 15.9823C64.5068 15.5642 65.419 15.3362 66.3691 15.3362C68.2694 15.3362 69.7517 15.9443 70.7398 17.1985C71.728 18.4147 72.222 20.0109 72.222 21.9872V32.5148H67.8134V22.7473C67.8134 21.7592 67.5473 20.9611 67.0912 20.353C66.5972 19.7449 65.837 19.4408 64.8489 19.4408C63.9368 19.4408 63.1766 19.7829 62.6446 20.429C62.0745 21.0751 61.8084 21.9112 61.8084 22.8994Z" fill="white"/>
<path d="M87.5003 26.624L91.1489 27.7262C90.6928 29.2844 89.8567 30.5386 88.5645 31.5268C87.2723 32.5149 85.676 33.009 83.7757 33.009C81.4574 33.009 79.4811 32.2109 77.8468 30.5766C76.2126 28.9424 75.4144 26.776 75.4144 24.0776C75.4144 21.4932 76.2126 19.3649 77.7708 17.7306C79.367 16.0964 81.2293 15.2603 83.3577 15.2603C85.866 15.2603 87.8043 16.0204 89.2486 17.5786C90.6548 19.1369 91.3769 21.2272 91.3769 23.9256V24.5337V25.0658L91.3389 25.2938H79.7471C79.7851 26.396 80.2032 27.3081 81.0013 28.0302C81.7994 28.7523 82.7496 29.1324 83.8517 29.1324C85.676 29.1704 86.9302 28.2963 87.5003 26.624ZM79.8231 22.2533H87.0822C87.0442 21.3412 86.7022 20.5431 86.1321 19.897C85.524 19.2509 84.6499 18.9468 83.4717 18.9468C82.4075 18.9468 81.5714 19.2889 80.8873 19.973C80.2412 20.6571 79.8991 21.4172 79.8231 22.2533Z" fill="white"/>
<path d="M100.232 39.1279H95.5576L99.3962 30.4245L92.5171 15.7922H97.4198L101.715 25.5978L105.705 15.7922H110.38" fill="white"/>
<path d="M121.706 19.5169C120.527 19.5169 119.577 19.935 118.779 20.7711C117.981 21.6072 117.601 22.7474 117.601 24.1916C117.601 25.6359 118.019 26.776 118.817 27.6502C119.615 28.4863 120.603 28.9424 121.782 28.9424C122.808 28.9424 123.644 28.6763 124.252 28.1062C124.86 27.5361 125.278 26.8901 125.506 26.1299L129.345 27.4601C128.965 29.0184 128.091 30.3106 126.76 31.4508C125.43 32.5529 123.758 33.123 121.744 33.123C119.311 33.123 117.297 32.2869 115.663 30.5766C114.028 28.9044 113.23 26.776 113.23 24.2296C113.23 21.6832 114.028 19.5549 115.663 17.8827C117.259 16.2104 119.273 15.3743 121.63 15.3743C123.682 15.3743 125.392 15.9444 126.684 17.0085C128.015 18.1107 128.851 19.4409 129.231 20.9991L125.316 22.3674C124.784 20.4671 123.568 19.5169 121.706 19.5169Z" fill="white"/>
<path d="M133.563 17.8446C135.16 16.1723 137.212 15.3362 139.644 15.3362C142.077 15.3362 144.091 16.1723 145.725 17.8446C147.36 19.5168 148.158 21.6452 148.158 24.1916C148.158 26.7379 147.36 28.8663 145.725 30.5385C144.129 32.2108 142.077 33.0469 139.644 33.0469C137.212 33.0469 135.198 32.2108 133.563 30.5385C131.967 28.8663 131.131 26.7379 131.131 24.1916C131.169 21.6452 131.967 19.5168 133.563 17.8446ZM136.718 27.7261C137.516 28.5622 138.504 28.9803 139.644 28.9803C140.785 28.9803 141.773 28.5622 142.571 27.7261C143.369 26.89 143.787 25.7118 143.787 24.2296C143.787 22.7473 143.369 21.5691 142.571 20.733C141.773 19.8969 140.785 19.4788 139.644 19.4788C138.504 19.4788 137.516 19.8969 136.718 20.733C135.92 21.5691 135.502 22.7473 135.502 24.2296C135.54 25.7118 135.92 26.89 136.718 27.7261Z" fill="white"/>
<path d="M155.987 22.9374V32.5529H151.616V15.8303H155.873V17.8827C156.329 17.0845 156.975 16.4384 157.849 16.0204C158.685 15.6023 159.597 15.3743 160.548 15.3743C162.448 15.3743 163.93 15.9824 164.918 17.2366C165.906 18.4907 166.401 20.049 166.401 22.0253V32.5529H162.03V22.7854C162.03 21.7973 161.764 20.9991 161.308 20.391C160.814 19.7829 160.054 19.4789 159.065 19.4789C158.153 19.4789 157.393 19.821 156.861 20.4671C156.253 21.1132 155.987 21.9493 155.987 22.9374Z" fill="white"/>
<path d="M176.206 10.8516V15.8304H179.475V19.821H176.206V26.8141C176.206 27.4982 176.358 28.0303 176.662 28.2963C176.966 28.6004 177.46 28.7524 178.106 28.7524C178.714 28.7524 179.133 28.7144 179.437 28.6004V32.325C178.79 32.591 177.992 32.743 176.966 32.743C175.37 32.743 174.154 32.287 173.204 31.3748C172.291 30.4627 171.835 29.2085 171.835 27.5742V19.783H168.909V15.7924H169.745C170.543 15.7924 171.189 15.5644 171.607 15.0703C172.025 14.5762 172.253 13.9301 172.253 13.132V10.7756" fill="white"/>
<path d="M192.853 15.7925V20.3532C192.397 20.2772 191.979 20.2012 191.523 20.2012C190.268 20.2012 189.28 20.5812 188.482 21.3033C187.722 22.0254 187.342 23.2416 187.342 24.9139V32.5531H182.971V15.8305H187.228V18.3009C188.026 16.5526 189.546 15.6785 191.827 15.6785C192.055 15.7165 192.397 15.7545 192.853 15.7925Z" fill="white"/>
<path d="M196.957 17.8446C198.554 16.1723 200.606 15.3362 203.038 15.3362C205.471 15.3362 207.485 16.1723 209.119 17.8446C210.715 19.5168 211.552 21.6452 211.552 24.1916C211.552 26.7379 210.753 28.8663 209.119 30.5385C207.523 32.2108 205.471 33.0469 203.038 33.0469C200.606 33.0469 198.592 32.2108 196.957 30.5385C195.361 28.8663 194.525 26.7379 194.525 24.1916C194.563 21.6452 195.361 19.5168 196.957 17.8446ZM200.15 27.7261C200.948 28.5622 201.936 28.9803 203.076 28.9803C204.216 28.9803 205.167 28.5622 206.003 27.7261C206.801 26.89 207.219 25.7118 207.219 24.2296C207.219 22.7473 206.801 21.5691 206.003 20.733C205.205 19.8969 204.216 19.4788 203.076 19.4788C201.936 19.4788 200.948 19.8969 200.15 20.733C199.352 21.5691 198.934 22.7473 198.934 24.2296C198.934 25.7118 199.314 26.89 200.15 27.7261Z" fill="white"/>
<path d="M219.381 7.96313H215.01V32.5529H219.381V7.96313Z" fill="white"/>
</svg>
