<svg width="180" height="50" viewBox="0 0 180 50" fill="none" xmlns="http://www.w3.org/2000/svg">
<path fill-rule="evenodd" clip-rule="evenodd" d="M101.528 14.483C96.5315 13.5367 91.4941 13.0429 87.9432 13.0429C75.3498 13.0429 70.8493 18.2683 70.8493 27.3614V35.6315C70.8493 43.9016 73.946 49.5385 88.8516 49.5385C92.8154 49.5385 97.6876 49.1681 102.436 48.2218V40.8569C98.6786 41.5563 95.2102 41.7209 89.7187 41.7209C83.8143 41.7209 80.5111 38.8819 80.5111 33.9034V29.1306C80.5111 23.864 83.1536 20.8605 88.3974 20.8605C89.2645 20.8605 90.9987 20.8605 91.907 21.1073V26.4973H101.569V14.483H101.528ZM61.1875 26.4973C61.1875 16.6637 56.6869 13.0429 48.4702 13.0429C45.3735 13.0429 42.3593 13.907 38.8084 15.6351L37.9413 13.907H25.2241V21.7245H30.5092V41.7209H26.1324V49.5385H44.5477V41.7209H40.171V21.7245C42.1529 21.025 44.1348 20.8193 46.4057 20.8193C52.0624 20.8193 51.6082 25.7156 51.6082 29.0894V49.4973H66.5138V41.6798H61.2287V26.4973H61.1875ZM15.5623 41.6798H20.8473V49.4973H0.615356V41.6798H5.90044V7.81753H1.52373V0H19.939V7.81753H15.5623V41.6798Z" fill="#010202"/>
<path fill-rule="evenodd" clip-rule="evenodd" d="M170.853 16.4992C170.853 12.8785 169.532 7.81764 163.38 7.81764C156.897 7.81764 153.924 14.0305 155.906 20.8606H147.277C146.616 18.9268 146.244 13.4956 148.309 9.17543C150.621 4.40262 156.071 0.0412598 163.256 0.0412598H145.377H130.472L112.056 27.4026V39.1289H131.793V31.3114H121.264L136.624 7.85879H137.078V49.5386H145.419C145.419 34.1092 154.502 29.1307 162.967 25.5922C167.632 23.6584 170.853 21.272 170.853 16.4992ZM179.606 16.0878V41.721H157.682C157.682 37.3597 161.769 36.6191 166.889 33.9035C173.454 30.365 179.606 26.0448 179.606 16.0878Z" fill="#E62B35"/>
</svg>
