<svg width="178" height="69" viewBox="0 0 178 69" fill="none" xmlns="http://www.w3.org/2000/svg">
<path d="M35.8133 41.332H39.957V30.0907L44.9599 14.9378H40.9298L38.1126 24.6346H38.0368L35.2069 14.9378H30.8104L35.8133 30.0907V41.332ZM52.1357 41.7118C53.8664 41.8257 55.572 41.1928 56.81 39.9775C57.9597 38.6103 58.5408 36.8633 58.4271 35.0784V21.204C58.5408 19.4191 57.9597 17.6595 56.81 16.2796C55.572 15.0644 53.8664 14.4314 52.1357 14.5453C50.4049 14.4314 48.712 15.0644 47.4739 16.2796C46.3243 17.6468 45.7305 19.4064 45.8442 21.1914V35.0784C45.7305 36.8633 46.3116 38.6103 47.4739 39.9775C48.712 41.1928 50.4049 41.8257 52.1357 41.7118ZM49.9753 20.9255C49.9753 19.2039 50.6954 18.3304 52.1483 18.3304C53.6011 18.3304 54.3212 19.2039 54.3212 20.9255V35.3316C54.3212 37.0659 53.6011 37.9394 52.1483 37.9394C50.7081 37.9394 49.9753 37.0659 49.9753 35.3316V20.9255ZM67.2326 41.7118C68.9381 41.8257 70.6057 41.2054 71.8312 39.9901C72.9556 38.6103 73.5241 36.8507 73.3977 35.0657V14.9378H69.4056V35.3696C69.4687 36.0658 69.2792 36.7747 68.8623 37.3317C68.4581 37.7495 67.8896 37.9773 67.2958 37.9394C66.702 37.99 66.1082 37.7621 65.6913 37.3317C65.2744 36.7621 65.0723 36.0658 65.1355 35.3696V14.9378H61.0422V35.0784C60.9285 36.8633 61.497 38.623 62.6214 40.0028C63.8469 41.2054 65.5271 41.8257 67.2326 41.7118ZM80.4725 30.0148H81.9632C82.7086 29.9388 83.4539 30.2046 83.9845 30.7363C84.452 31.4959 84.6541 32.382 84.5657 33.2682V38.0913C84.5278 38.7875 84.5404 39.4838 84.591 40.18C84.6415 40.5978 84.7426 40.9902 84.8942 41.3826H89.1137C88.9116 40.9522 88.7853 40.4838 88.7347 40.0028C88.6716 39.3952 88.6463 38.7875 88.6589 38.1799V33.496C88.7095 32.2175 88.4947 30.9515 88.0399 29.7616C87.6356 28.8501 86.8397 28.1665 85.8669 27.9134V27.8374C87.6735 27.1158 88.5705 25.3815 88.5705 22.6345V21.0015C88.7094 19.3431 88.1788 17.6975 87.105 16.4189C85.8038 15.3175 84.1235 14.7859 82.4306 14.9251H76.3287V41.3194H80.4725V30.0148ZM80.4725 18.7102H82.3548C82.9612 18.6595 83.555 18.9001 83.9593 19.3558C84.3383 19.9761 84.5152 20.6977 84.452 21.4319V23.47C84.5278 24.2422 84.313 25.0271 83.8329 25.6474C83.3276 26.1031 82.658 26.3436 81.9632 26.293H80.4598V18.7102H80.4725ZM96.8833 41.7118C98.6014 41.8257 100.294 41.1928 101.52 39.9775C102.669 38.585 103.251 36.8127 103.124 35.0025C103.162 33.496 102.821 32.0022 102.151 30.6604C101.204 29.0907 99.9911 27.7108 98.5762 26.5588C97.5023 25.6853 96.5674 24.6726 95.7715 23.546C95.2536 22.7484 94.9756 21.8117 94.963 20.8622C94.963 19.1786 95.6578 18.3431 97.0349 18.3431C97.616 18.3051 98.1845 18.533 98.5762 18.9634C98.9804 19.533 99.1699 20.2419 99.1068 20.9382V22.2927H103.023V21.204C103.149 19.4317 102.619 17.6848 101.532 16.2796C100.357 15.077 98.7151 14.4441 97.0349 14.558C95.3294 14.4441 93.6618 15.0644 92.4489 16.2796C91.3246 17.6342 90.7561 19.3685 90.8698 21.1281C90.8445 22.5712 91.1982 23.989 91.8931 25.2549C92.8532 26.7867 94.066 28.1665 95.4683 29.3059C96.5295 30.192 97.4518 31.2174 98.2224 32.3694C98.7278 33.2555 98.9931 34.2682 98.9678 35.2936C99.031 36.0152 98.8415 36.7241 98.4246 37.3191C98.0077 37.7621 97.4265 37.99 96.8201 37.952C95.3799 37.952 94.6472 37.0912 94.6472 35.3822V33.5846H90.794V35.0911C90.6803 36.8633 91.2235 38.623 92.3353 40.0155C93.5228 41.2054 95.1904 41.8384 96.8833 41.7118ZM108.733 41.332H112.877V18.7102H117.21V14.9378H104.413V18.7102H108.733V41.332ZM125.031 41.7118C126.761 41.8257 128.467 41.1928 129.705 39.9775C130.855 38.6103 131.436 36.8633 131.322 35.0784V21.204C131.436 19.4191 130.855 17.6595 129.705 16.2796C127.027 13.963 123.06 13.963 120.381 16.2796C119.232 17.6468 118.638 19.4064 118.752 21.1914V35.0784C118.638 36.8633 119.219 38.6103 120.381 39.9775C121.607 41.1928 123.3 41.8257 125.031 41.7118ZM122.858 20.9255C122.858 19.2039 123.578 18.3304 125.031 18.3304C126.483 18.3304 127.204 19.2039 127.204 20.9255V35.3316C127.204 37.0659 126.483 37.9394 125.031 37.9394C123.59 37.9394 122.858 37.0659 122.858 35.3316V20.9255ZM138.233 30.0148H139.66C140.405 29.9388 141.151 30.2046 141.681 30.7363C142.149 31.4959 142.351 32.382 142.263 33.2682V38.0913C142.25 38.7749 142.275 39.4585 142.338 40.1294C142.389 40.5471 142.49 40.9396 142.642 41.332H146.849C146.659 40.8889 146.533 40.4332 146.482 39.9522C146.419 39.3445 146.394 38.7369 146.406 38.1293V33.496C146.457 32.2175 146.242 30.9515 145.787 29.7616C145.383 28.8501 144.587 28.1665 143.614 27.9134V27.8374C145.434 27.1158 146.331 25.3815 146.318 22.6345V21.0015C146.457 19.3431 145.926 17.6975 144.852 16.4189C143.551 15.3175 141.871 14.7859 140.178 14.9251H134.051V41.3194H138.195L138.233 30.0148ZM138.233 18.7102H140.115C140.721 18.6595 141.302 18.9001 141.707 19.3558C142.098 19.9761 142.288 20.6977 142.212 21.4319V23.47C142.288 24.2422 142.073 25.0271 141.593 25.6474C141.088 26.1031 140.418 26.3436 139.723 26.293H138.22V18.7102H138.233ZM152.458 41.332H156.602V30.0907L161.604 14.9378H157.574L154.757 24.6346H154.681L151.851 14.9378H147.455L152.458 30.0907V41.332Z" fill="#FF0000"/>
<path d="M172.974 0H14.8796V55.9533H177.308V0H172.974ZM172.974 51.6112H19.1118V4.34208H172.974V51.6112Z" fill="#FF0000"/>
<path d="M160.644 55.257C160.012 55.2443 159.393 55.0924 158.838 54.8139V64.5867H5.02553V17.305H17.0778C16.4714 15.8745 16.6609 14.2288 17.5705 12.9629H0.692261V68.9162H163.158V54.8013C162.35 55.1051 161.503 55.257 160.644 55.257Z" fill="#FF0000"/>
<path d="M19.9961 53.2189L4.07797 67.9794L1.02068 64.9159L16.9388 50.1554L19.9961 53.2189ZM17.9242 3.06351L3.83793 16.0518L0.78064 12.9882L14.8669 0C14.8669 0.0126591 17.9242 3.06351 17.9242 3.06351Z" fill="#FF0000"/>
</svg>
