<svg xmlns="http://www.w3.org/2000/svg" xmlns:xlink="http://www.w3.org/1999/xlink" width="500" zoomAndPan="magnify" viewBox="0 0 375 374.999991" height="500" preserveAspectRatio="xMidYMid meet" version="1.0"><defs><clipPath id="460a48456a"><path d="M 100.34375 76.476562 L 284.09375 76.476562 L 284.09375 273.726562 L 100.34375 273.726562 Z M 100.34375 76.476562 " clip-rule="nonzero"/></clipPath></defs><rect x="-37.5" width="450" fill="none" y="-37.499999" height="449.999989" fill-opacity="1"/><g clip-path="url(#460a48456a)"><path fill="" d="M 192.214844 76.476562 C 217.585938 76.476562 240.554688 86.761719 257.175781 103.386719 C 273.804688 120.019531 284.089844 142.992188 284.089844 168.363281 C 284.089844 180.847656 281.585938 192.765625 277.058594 203.652344 C 272.78125 213.914062 266.691406 223.238281 259.195312 231.230469 L 263.9375 266.410156 C 264.410156 269.945312 261.933594 273.191406 258.398438 273.667969 C 256.816406 273.878906 255.292969 273.496094 254.042969 272.695312 L 223.433594 254.789062 C 218.980469 256.402344 214.375 257.675781 209.652344 258.589844 C 203.96875 259.679688 198.140625 260.253906 192.214844 260.253906 C 166.847656 260.253906 143.878906 249.96875 127.253906 233.339844 C 110.628906 216.710938 100.34375 193.742188 100.34375 168.363281 C 100.34375 142.992188 110.628906 120.019531 127.253906 103.386719 C 143.878906 86.761719 166.847656 76.476562 192.214844 76.476562 Z M 142.769531 189.496094 C 144.164062 192.777344 142.636719 196.570312 139.351562 197.96875 C 136.074219 199.363281 132.28125 197.835938 130.886719 194.550781 C 127.515625 186.667969 125.734375 178.253906 125.554688 169.789062 C 125.371094 161.34375 126.789062 152.871094 129.816406 144.839844 C 131.074219 141.503906 134.792969 139.816406 138.132812 141.074219 C 141.46875 142.332031 143.15625 146.054688 141.898438 149.394531 C 139.449219 155.894531 138.300781 162.738281 138.449219 169.539062 C 138.597656 176.320312 140.035156 183.097656 142.769531 189.496094 Z M 154.203125 130.34375 C 151.675781 132.875 147.578125 132.875 145.050781 130.34375 C 142.523438 127.816406 142.523438 123.71875 145.050781 121.1875 C 155.707031 110.53125 169.308594 104.113281 183.519531 102.238281 C 197.710938 100.371094 212.5 103.058594 225.566406 110.609375 C 225.6875 110.675781 225.804688 110.75 225.917969 110.820312 C 233.441406 115.230469 239.945312 121.011719 245.132812 127.773438 C 250.414062 134.65625 254.347656 142.566406 256.640625 151.101562 C 257.558594 154.550781 255.511719 158.097656 252.0625 159.019531 C 248.617188 159.941406 245.066406 157.890625 244.148438 154.441406 C 242.304688 147.546875 239.125 141.160156 234.867188 135.609375 C 230.675781 130.148438 225.453125 125.492188 219.4375 121.96875 C 219.320312 121.910156 219.207031 121.851562 219.09375 121.78125 C 208.554688 115.695312 196.628906 113.53125 185.1875 115.035156 C 173.773438 116.539062 162.820312 121.726562 154.203125 130.34375 Z M 244.148438 182.289062 C 245.074219 178.839844 248.617188 176.789062 252.0625 177.710938 C 255.511719 178.628906 257.558594 182.175781 256.640625 185.628906 C 252.734375 200.203125 244.164062 212.566406 232.796875 221.289062 C 225.976562 226.527344 218.148438 230.445312 209.710938 232.742188 L 209.710938 147.386719 C 209.710938 143.8125 212.613281 140.914062 216.1875 140.914062 C 219.757812 140.914062 222.660156 143.8125 222.660156 147.386719 L 222.660156 212.699219 C 223.445312 212.160156 224.207031 211.601562 224.964844 211.023438 C 234.105469 204.007812 241 194.046875 244.148438 182.289062 Z M 198.691406 234.765625 C 196.554688 234.972656 194.394531 235.078125 192.214844 235.078125 C 190.046875 235.078125 187.886719 234.972656 185.742188 234.761719 L 185.742188 168.363281 C 185.742188 164.792969 188.644531 161.890625 192.214844 161.890625 C 195.789062 161.890625 198.691406 164.792969 198.691406 168.363281 Z M 174.71875 232.726562 C 172 231.984375 169.324219 231.070312 166.714844 229.984375 C 158.660156 226.652344 151.28125 221.769531 145.050781 215.535156 C 142.527344 213.007812 142.527344 208.914062 145.050781 206.386719 C 147.578125 203.859375 151.675781 203.859375 154.203125 206.386719 C 156.554688 208.734375 159.089844 210.839844 161.773438 212.695312 L 161.773438 182.753906 C 161.773438 179.175781 164.671875 176.277344 168.246094 176.277344 C 171.820312 176.277344 174.71875 179.175781 174.71875 182.753906 Z M 248.027344 112.542969 C 233.746094 98.257812 214.011719 89.421875 192.214844 89.421875 C 170.421875 89.421875 150.6875 98.257812 136.40625 112.542969 C 122.125 126.828125 113.289062 146.566406 113.289062 168.363281 C 113.289062 190.164062 122.125 209.902344 136.40625 224.1875 C 150.6875 238.472656 170.421875 247.304688 192.214844 247.304688 C 197.386719 247.304688 202.402344 246.820312 207.226562 245.894531 C 212.21875 244.933594 217.03125 243.507812 221.613281 241.664062 L 221.617188 241.671875 C 223.402344 240.957031 225.488281 241.046875 227.277344 242.09375 L 249.375 255.023438 L 245.984375 229.839844 C 245.722656 227.910156 246.339844 225.886719 247.828125 224.40625 C 255.164062 217.121094 261.082031 208.398438 265.121094 198.691406 C 269 189.375 271.140625 179.132812 271.140625 168.363281 C 271.140625 146.566406 262.308594 126.828125 248.027344 112.542969 Z M 248.027344 112.542969 " fill-opacity="1" fill-rule="evenodd"/></g></svg>
