<svg xmlns="http://www.w3.org/2000/svg" xmlns:xlink="http://www.w3.org/1999/xlink" width="500" zoomAndPan="magnify" viewBox="0 0 375 374.999991" height="500" preserveAspectRatio="xMidYMid meet" version="1.0"><defs><clipPath id="363a21a885"><path d="M 7.875 4.816406 L 363.375 4.816406 L 363.375 360.316406 L 7.875 360.316406 Z M 7.875 4.816406 " clip-rule="nonzero"/></clipPath></defs><path fill="#9bc9ff" d="M 185.628906 48.40625 L 319.535156 48.40625 C 338.964844 48.40625 354.746094 64.210938 354.746094 83.640625 L 354.746094 114.847656 L 16.539062 114.847656 L 16.539062 83.640625 C 16.539062 64.210938 32.320312 48.40625 51.753906 48.40625 Z M 298.40625 165.59375 L 298.40625 209.296875 L 254.726562 209.296875 L 254.726562 165.59375 Z M 207.5 209.296875 L 163.785156 209.296875 L 163.785156 165.59375 L 207.5 165.59375 Z M 207.5 257.234375 L 207.5 300.9375 L 163.785156 300.9375 L 163.785156 257.234375 Z M 116.558594 300.9375 L 72.84375 300.9375 L 72.84375 257.234375 L 116.558594 257.234375 Z M 72.84375 209.296875 L 72.84375 165.59375 L 116.558594 165.59375 L 116.558594 209.296875 Z M 254.726562 257.234375 L 298.40625 257.234375 L 298.40625 300.9375 L 254.726562 300.9375 Z M 254.726562 257.234375 " fillOpacity="1" fill-rule="evenodd"/><g clipPath="url(#363a21a885)"><path fill="#57a4ff" d="M 107.921875 200.660156 L 81.480469 200.660156 L 81.480469 174.230469 L 107.921875 174.230469 Z M 116.554688 156.957031 L 72.847656 156.957031 C 68.070312 156.957031 64.210938 160.824219 64.210938 165.59375 L 64.210938 209.296875 C 64.210938 214.066406 68.070312 217.933594 72.847656 217.933594 L 116.554688 217.933594 C 121.328125 217.933594 125.1875 214.066406 125.1875 209.296875 L 125.1875 165.59375 C 125.1875 160.824219 121.328125 156.957031 116.554688 156.957031 Z M 198.863281 200.660156 L 172.421875 200.660156 L 172.421875 174.230469 L 198.863281 174.230469 Z M 207.496094 156.957031 L 163.785156 156.957031 C 159.011719 156.957031 155.152344 160.824219 155.152344 165.59375 L 155.152344 209.296875 C 155.152344 214.066406 159.011719 217.933594 163.785156 217.933594 L 207.496094 217.933594 C 212.273438 217.933594 216.132812 214.066406 216.132812 209.296875 L 216.132812 165.59375 C 216.132812 160.824219 212.273438 156.957031 207.496094 156.957031 Z M 289.773438 200.660156 L 263.363281 200.660156 L 263.363281 174.230469 L 289.773438 174.230469 Z M 298.40625 156.957031 L 254.730469 156.957031 C 249.957031 156.957031 246.097656 160.824219 246.097656 165.59375 L 246.097656 209.296875 C 246.097656 214.066406 249.957031 217.933594 254.730469 217.933594 L 298.40625 217.933594 C 303.179688 217.933594 307.039062 214.066406 307.039062 209.296875 L 307.039062 165.59375 C 307.039062 160.824219 303.179688 156.957031 298.40625 156.957031 Z M 198.863281 292.300781 L 172.421875 292.300781 L 172.421875 265.867188 L 198.863281 265.867188 Z M 207.496094 248.59375 L 163.785156 248.59375 C 159.011719 248.59375 155.152344 252.464844 155.152344 257.230469 L 155.152344 300.933594 C 155.152344 305.703125 159.011719 309.570312 163.785156 309.570312 L 207.496094 309.570312 C 212.273438 309.570312 216.132812 305.703125 216.132812 300.933594 L 216.132812 257.230469 C 216.132812 252.464844 212.273438 248.59375 207.496094 248.59375 Z M 289.773438 292.300781 L 263.363281 292.300781 L 263.363281 265.867188 L 289.773438 265.867188 Z M 298.40625 248.59375 L 254.730469 248.59375 C 249.957031 248.59375 246.097656 252.464844 246.097656 257.230469 L 246.097656 300.933594 C 246.097656 305.703125 249.957031 309.570312 254.730469 309.570312 L 298.40625 309.570312 C 303.179688 309.570312 307.039062 305.703125 307.039062 300.933594 L 307.039062 257.230469 C 307.039062 252.464844 303.179688 248.59375 298.40625 248.59375 Z M 107.921875 292.300781 L 81.480469 292.300781 L 81.480469 265.867188 L 107.921875 265.867188 Z M 116.554688 248.59375 L 72.847656 248.59375 C 68.070312 248.59375 64.210938 252.464844 64.210938 257.230469 L 64.210938 300.933594 C 64.210938 305.703125 68.070312 309.570312 72.847656 309.570312 L 116.554688 309.570312 C 121.328125 309.570312 125.1875 305.703125 125.1875 300.933594 L 125.1875 257.230469 C 125.1875 252.464844 121.328125 248.59375 116.554688 248.59375 Z M 319.53125 343.046875 C 334.191406 343.046875 346.109375 331.117188 346.109375 316.449219 L 346.109375 123.484375 L 25.171875 123.484375 L 25.171875 316.449219 C 25.171875 331.117188 37.09375 343.046875 51.753906 343.046875 Z M 51.753906 57.039062 L 86.015625 57.039062 L 86.015625 72.753906 C 86.015625 77.523438 89.910156 81.390625 94.648438 81.390625 C 99.425781 81.390625 103.285156 77.523438 103.285156 72.753906 L 103.285156 57.039062 L 176.992188 57.039062 L 176.992188 72.753906 C 176.992188 77.523438 180.851562 81.390625 185.625 81.390625 C 190.398438 81.390625 194.257812 77.523438 194.257812 72.753906 L 194.257812 57.039062 L 267.964844 57.039062 L 267.964844 72.753906 C 267.964844 77.523438 271.828125 81.390625 276.601562 81.390625 C 281.375 81.390625 285.234375 77.523438 285.234375 72.753906 L 285.234375 57.039062 L 319.53125 57.039062 C 334.191406 57.039062 346.109375 68.972656 346.109375 83.640625 L 346.109375 106.210938 L 25.171875 106.210938 L 25.171875 83.640625 C 25.171875 68.972656 37.09375 57.039062 51.753906 57.039062 Z M 319.53125 39.769531 L 285.234375 39.769531 L 285.234375 13.453125 C 285.234375 8.683594 281.375 4.820312 276.601562 4.820312 C 271.828125 4.820312 267.96875 8.683594 267.96875 13.453125 L 267.96875 39.769531 L 194.257812 39.769531 L 194.257812 13.453125 C 194.257812 8.683594 190.398438 4.820312 185.625 4.820312 C 180.851562 4.820312 176.992188 8.683594 176.992188 13.453125 L 176.992188 39.769531 L 103.285156 39.769531 L 103.285156 13.453125 C 103.285156 8.683594 99.421875 4.820312 94.648438 4.820312 C 89.910156 4.820312 86.015625 8.683594 86.015625 13.453125 L 86.015625 39.769531 L 51.753906 39.769531 C 27.578125 39.769531 7.871094 59.453125 7.871094 83.640625 L 7.871094 316.449219 C 7.871094 340.640625 27.578125 360.316406 51.753906 360.316406 L 319.535156 360.316406 C 343.707031 360.316406 363.378906 340.640625 363.378906 316.449219 L 363.378906 83.640625 C 363.378906 59.453125 343.707031 39.769531 319.53125 39.769531 Z M 319.53125 39.769531 " fillOpacity="1" fill-rule="evenodd"/></g></svg>
