<svg xmlns="http://www.w3.org/2000/svg" xmlns:xlink="http://www.w3.org/1999/xlink" width="500" zoomAndPan="magnify" viewBox="0 0 375 374.999991" height="500" preserveAspectRatio="xMidYMid meet" version="1.0"><path fill="#1a87ef" d="M 311.773438 288.191406 C 300.359375 289.792969 291.078125 298.199219 288.359375 309.394531 C 284.511719 325.242188 268.015625 334.496094 252.472656 329.535156 C 241.488281 326.03125 229.480469 329.578125 222.167969 338.484375 C 211.820312 351.097656 192.941406 352.285156 181.089844 341.074219 C 172.714844 333.15625 160.359375 331.140625 149.902344 336 C 135.105469 342.871094 117.578125 335.757812 111.765625 320.519531 C 107.660156 309.753906 97.398438 302.582031 85.871094 302.425781 C 69.554688 302.199219 56.855469 288.191406 58.234375 271.941406 C 59.207031 260.464844 53.074219 249.550781 42.757812 244.414062 C 28.15625 237.136719 22.792969 219.007812 31.09375 204.964844 C 36.957031 195.046875 36.167969 182.554688 29.105469 173.453125 C 19.105469 160.5625 22.148438 141.90625 35.722656 132.851562 C 45.308594 126.457031 50.023438 114.863281 47.613281 103.601562 L 47.613281 103.597656 C 44.199219 87.652344 55.042969 72.160156 71.199219 69.886719 C 82.617188 68.285156 91.894531 59.882812 94.617188 48.6875 C 98.464844 32.839844 114.960938 23.582031 130.503906 28.542969 C 141.484375 32.046875 153.492188 28.5 160.808594 19.59375 C 171.15625 6.984375 190.035156 5.796875 201.886719 17.007812 C 210.257812 24.925781 222.617188 26.9375 233.074219 22.078125 C 247.871094 15.207031 265.398438 22.320312 271.207031 37.558594 C 275.3125 48.324219 285.578125 55.496094 297.101562 55.652344 C 313.417969 55.878906 326.121094 69.886719 324.742188 86.136719 C 323.765625 97.617188 329.898438 108.527344 340.214844 113.667969 C 354.816406 120.945312 360.179688 139.074219 351.882812 153.113281 C 346.015625 163.035156 346.804688 175.523438 353.867188 184.628906 C 363.867188 197.515625 360.828125 216.175781 347.253906 225.226562 C 337.664062 231.621094 332.949219 243.21875 335.363281 254.480469 C 338.773438 270.425781 327.933594 285.917969 311.773438 288.191406 " fillOpacity="1" fill-rule="nonzero"/><path fill="#ffffff" d="M 260.207031 112.667969 L 158.066406 214.738281 C 156.554688 216.25 154.101562 216.25 152.59375 214.738281 L 122.769531 184.9375 C 117.660156 179.828125 109.371094 179.828125 104.257812 184.9375 C 99.148438 190.042969 99.148438 198.324219 104.257812 203.429688 L 136.820312 235.96875 L 146.40625 245.550781 C 151.332031 250.476562 159.324219 250.476562 164.25 245.550781 L 173.835938 235.96875 L 278.714844 131.164062 C 283.828125 126.054688 283.828125 117.773438 278.714844 112.667969 C 273.605469 107.558594 265.316406 107.558594 260.207031 112.667969 " fillOpacity="1" fill-rule="nonzero"/></svg>
