<svg xmlns="http://www.w3.org/2000/svg" xmlns:xlink="http://www.w3.org/1999/xlink" width="500" zoomAndPan="magnify" viewBox="0 0 375 374.999991" height="500" preserveAspectRatio="xMidYMid meet" version="1.0"><defs><clipPath id="d60e0fac45"><path d="M 33.507812 27 L 210 27 L 210 370 L 33.507812 370 Z M 33.507812 27 " clip-rule="nonzero"/></clipPath><clipPath id="9744127a8f"><path d="M 176 5.042969 L 354.507812 5.042969 L 354.507812 346 L 176 346 Z M 176 5.042969 " clip-rule="nonzero"/></clipPath></defs><path fill="#5271ff" d="M 257.933594 189.03125 L 276.074219 181.214844 C 275.039062 173.953125 275.144531 174.734375 274.089844 167.46875 L 254.492188 165.082031 C 252.253906 160.203125 251.621094 158.808594 249.402344 153.929688 L 260.425781 137.542969 C 255.613281 131.988281 256.140625 132.601562 251.324219 127.046875 L 233.542969 135.621094 C 229.023438 132.726562 227.734375 131.90625 223.214844 128.988281 L 223.636719 109.242188 C 216.605469 107.175781 217.367188 107.40625 210.3125 105.335938 L 199.984375 122.167969 C 194.621094 122.167969 193.101562 122.167969 187.714844 122.167969 L 177.386719 105.335938 C 170.355469 107.40625 171.117188 107.175781 164.0625 109.242188 L 164.484375 128.988281 C 159.964844 131.882812 158.675781 132.707031 154.15625 135.621094 L 136.375 127.046875 C 131.558594 132.601562 132.089844 131.988281 127.273438 137.542969 L 138.316406 153.910156 C 136.078125 158.789062 135.445312 160.183594 133.230469 165.0625 L 113.628906 167.445312 C 112.59375 174.710938 112.703125 173.929688 111.644531 181.195312 L 129.785156 189.007812 C 130.546875 194.332031 130.757812 195.832031 131.539062 201.152344 L 116.332031 213.761719 C 119.375 220.433594 119.058594 219.714844 122.097656 226.390625 L 141.589844 223.160156 C 145.097656 227.214844 146.109375 228.375 149.617188 232.429688 L 143.660156 251.265625 C 149.828125 255.238281 149.171875 254.816406 155.339844 258.765625 L 169.996094 245.523438 C 175.148438 247.042969 176.605469 247.464844 181.757812 248.988281 L 186.914062 268.054688 C 194.261719 268.054688 193.460938 268.054688 200.789062 268.054688 L 205.941406 248.988281 C 211.09375 247.464844 212.550781 247.042969 217.703125 245.523438 L 232.359375 258.765625 C 238.527344 254.792969 237.871094 255.214844 244.039062 251.265625 L 238.082031 232.429688 C 241.589844 228.375 242.601562 227.214844 246.109375 223.160156 L 265.601562 226.390625 C 268.640625 219.714844 268.324219 220.433594 271.367188 213.761719 L 256.160156 201.152344 C 256.941406 195.851562 257.175781 194.351562 257.933594 189.03125 Z M 193.859375 228.121094 C 170.988281 228.121094 152.425781 209.578125 152.425781 186.6875 C 152.425781 163.792969 170.96875 145.25 193.859375 145.25 C 216.753906 145.25 235.296875 163.792969 235.296875 186.6875 C 235.296875 209.578125 216.730469 228.121094 193.859375 228.121094 Z M 193.859375 228.121094 " fillOpacity="1" fill-rule="nonzero"/><g clipPath="url(#d60e0fac45)"><path fill="#5271ff" d="M 208.980469 325.542969 L 166.53125 285.457031 C 165.179688 284.191406 162.964844 285.140625 162.964844 287 L 162.964844 303.664062 C 162.964844 305.054688 161.613281 306.070312 160.261719 305.691406 C 108.351562 291.035156 70.210938 243.242188 70.210938 186.707031 C 70.210938 127.554688 111.960938 77.988281 167.546875 65.910156 C 169.214844 65.550781 169.804688 63.480469 168.558594 62.296875 L 157.199219 51.570312 C 156.3125 50.746094 156.3125 49.332031 157.199219 48.507812 L 175.402344 31.292969 C 176.882812 29.902344 175.71875 27.410156 173.691406 27.664062 C 159.140625 29.480469 144.992188 33.28125 131.414062 39.023438 C 112.320312 47.089844 95.171875 58.644531 80.472656 73.363281 C 65.753906 88.082031 54.203125 105.210938 46.136719 124.300781 C 37.773438 144.070312 33.527344 165.0625 33.527344 186.707031 C 33.527344 208.355469 37.773438 229.324219 46.136719 249.113281 C 54.203125 268.203125 65.753906 285.351562 80.472656 300.050781 C 95.195312 314.769531 112.320312 326.324219 131.414062 334.390625 C 141.085938 338.488281 151.054688 341.59375 161.253906 343.683594 C 162.222656 343.894531 162.941406 344.738281 162.941406 345.753906 L 162.941406 367.144531 C 162.941406 369.003906 165.160156 369.953125 166.511719 368.6875 L 208.960938 328.605469 C 209.867188 327.757812 209.867188 326.367188 208.980469 325.542969 Z M 208.980469 325.542969 " fillOpacity="1" fill-rule="nonzero"/></g><g clipPath="url(#9744127a8f)"><path fill="#5271ff" d="M 341.542969 124.300781 C 333.476562 105.210938 321.925781 88.0625 307.203125 73.363281 C 292.484375 58.644531 275.359375 47.089844 256.265625 39.023438 C 246.085938 34.714844 235.589844 31.507812 224.863281 29.414062 C 223.871094 29.226562 223.152344 28.359375 223.152344 27.34375 L 223.152344 5.042969 L 177.15625 48.484375 C 176.269531 49.308594 176.269531 50.722656 177.15625 51.546875 L 219.605469 91.632812 C 220.957031 92.898438 223.171875 91.949219 223.171875 90.089844 L 223.171875 69.289062 C 223.171875 67.894531 224.503906 66.878906 225.835938 67.238281 C 278.566406 81.367188 317.488281 129.539062 317.488281 186.664062 C 317.488281 247.382812 273.476562 298.023438 215.675781 308.351562 C 213.964844 308.648438 213.351562 310.78125 214.597656 311.960938 L 228.917969 325.5 C 229.804688 326.324219 229.804688 327.738281 228.917969 328.5625 L 215 341.699219 C 213.5 343.113281 214.703125 345.625 216.753906 345.328125 C 230.332031 343.386719 243.554688 339.710938 256.265625 334.347656 C 275.359375 326.28125 292.507812 314.730469 307.203125 300.007812 C 321.902344 285.289062 333.476562 268.164062 341.542969 249.070312 C 349.90625 229.304688 354.152344 208.3125 354.152344 186.664062 C 354.152344 165.019531 349.90625 144.070312 341.542969 124.300781 Z M 341.542969 124.300781 " fillOpacity="1" fill-rule="nonzero"/></g></svg>
